<svg width="32" height="32" viewBox="0 0 32 32" fill="none" xmlns="http://www.w3.org/2000/svg">
<path fill-rule="evenodd" clip-rule="evenodd" d="M5.71429 6.46667V6.45714C5.71429 5.98376 6.09804 5.6 6.57143 5.6C7.04482 5.6 7.42857 5.98376 7.42857 6.45714V6.46667C7.42857 7.20593 7.83486 7.8698 8.488 8.2L8.84971 8.38287C9.45442 8.68581 9.96305 9.15407 10.3179 9.7345C10.5235 10.0708 10.6727 10.437 10.7613 10.8183C10.8685 11.2791 10.4745 11.6667 10.0015 11.6667C9.52728 11.6667 9.16024 11.2644 8.95925 10.8348C8.77969 10.4511 8.4762 10.1319 8.08343 9.93333L7.72171 9.75047C7.11701 9.44752 6.60838 8.97927 6.25355 8.39883C5.89873 7.8184 5.71191 7.14902 5.71429 6.46667ZM10 4.5288V3.85714C10 3.38376 10.3838 3 10.8571 3C11.3305 3 11.7143 3.38376 11.7143 3.85714V4.5288C11.7143 5.39373 12.19 6.17113 12.9546 6.55767C13.6135 6.88839 14.1677 7.39902 14.5544 8.03176C14.9412 8.66449 15.145 9.39405 15.1429 10.1379V10.8095C15.1429 11.2829 14.7591 11.6667 14.2857 11.6667C13.8123 11.6667 13.4286 11.2829 13.4286 10.8095V10.1379C13.4286 9.27293 12.9529 8.49553 12.1883 8.109C11.5294 7.77827 10.9752 7.26764 10.5884 6.63491C10.2017 6.00218 9.99785 5.27261 10 4.5288ZM8.78639 18.7641C8.61992 18.3218 8.89925 17.8529 9.35666 17.7339C9.81578 17.6145 10.2791 17.8939 10.4604 18.3323C10.711 18.9383 11.0576 19.5011 11.4883 19.9979C11.918 20.4936 12.4232 20.914 12.9831 21.2442C13.392 21.4853 13.6079 21.9807 13.4316 22.4214C13.2529 22.868 12.7412 23.0873 12.3198 22.8552C11.5205 22.4151 10.802 21.8347 10.1992 21.139C9.59086 20.4369 9.1131 19.6323 8.78639 18.7641ZM26.2857 16C26.2857 19.6634 24.4283 22.9871 21.3169 24.8937L21.0143 25.0792L20.6363 26.6097C20.59 26.7975 20.4829 26.9641 20.3321 27.0832C20.1812 27.2022 19.9953 27.2668 19.804 27.2667H12.196C12.0048 27.2669 11.819 27.2024 11.6682 27.0835C11.5173 26.9646 11.4102 26.7982 11.3637 26.6106L10.9746 25.035L10.6831 24.8495C7.618 22.9021 5.71429 19.3887 5.71429 15.6819V15.1333H26.2857V16ZM26.2857 13.4H24.1429L27.6095 4.98767C27.7892 4.55179 27.5837 4.05261 27.1494 3.86941C26.7099 3.68406 26.2036 3.89241 26.0219 4.33338L22.2854 13.4H21.2174L21.9271 4.79179C21.966 4.32035 21.6157 3.90647 21.1444 3.86679C20.6718 3.82702 20.2567 4.17832 20.2178 4.65094L19.4971 13.4H5.71429C4.76886 13.4 4 14.1774 4 15.1333V15.6819C4 19.8601 6.08971 23.8286 9.47714 26.1244L9.70086 27.0318C9.83992 27.5943 10.1611 28.0937 10.6132 28.4503C11.0654 28.807 11.6225 29.0005 12.196 29H19.804C20.3776 29.0004 20.9348 28.8068 21.387 28.45C21.8391 28.0932 22.1602 27.5936 22.2991 27.0309L22.5083 26.1842C25.954 23.9335 28 20.1539 28 16V15.1333C28 14.1774 27.2311 13.4 26.2857 13.4Z" fill="#FF7D41" stroke="#FF7D41" stroke-width="0.5"/>
</svg>
