<svg width="32" height="32" viewBox="0 0 32 32" fill="none" xmlns="http://www.w3.org/2000/svg">
<path d="M26.9993 13.9996L26.9079 19.6592C26.9079 21.5039 25.1245 23 22.9233 23H9.03302C6.83282 23 5.04844 21.5047 5.04844 19.6592L5.00067 13.9996M21.7483 5H10.6688C9.37423 5 8.21725 5.74171 7.77636 6.85693L5.04186 13.7567C4.87907 14.1666 5.21143 14.5996 5.68721 14.5996H26.3132C26.7754 14.5996 27.1049 14.1906 26.9692 13.786L24.6901 6.99001C24.2938 5.80736 23.1 5 21.7483 5Z" stroke="#FF7D41" stroke-width="2.5" stroke-miterlimit="10"/>
<path d="M4.99998 22L11.1363 22.5V24.875C11.1363 26.0486 10.2022 27 9.04998 27H7.08635C5.93408 27 4.99998 26.0486 4.99998 24.875V22Z" fill="#FF7D41"/>
<path d="M20.8636 22.5L27 22V24.875C27 26.0486 26.0659 27 24.9136 27H22.95C21.7977 27 20.8636 26.0486 20.8636 24.875V22.5Z" fill="#FF7D41"/>
<path d="M13.7727 8.25C13.7727 7.55964 14.3222 7 15 7H17.4545C18.1323 7 18.6818 7.55964 18.6818 8.25C18.6818 8.94036 18.1323 9.5 17.4545 9.5H15C14.3222 9.5 13.7727 8.94036 13.7727 8.25Z" fill="#FF7D41"/>
<path d="M2.31818 12C2.31818 11.3096 2.86765 10.75 3.54545 10.75H4.77272C5.45053 10.75 5.99999 11.3096 5.99999 12C5.99999 12.6904 5.45053 13.25 4.77272 13.25H3.54545C2.86764 13.25 2.31818 12.6904 2.31818 12Z" fill="#FF7D41"/>
<path d="M26 12C26 11.3096 26.5495 10.75 27.2273 10.75H28.4545C29.1323 10.75 29.6818 11.3096 29.6818 12C29.6818 12.6904 29.1323 13.25 28.4545 13.25H27.2273C26.5495 13.25 26 12.6904 26 12Z" fill="#FF7D41"/>
</svg>
