<svg width="32" height="32" viewBox="0 0 32 32" fill="none" xmlns="http://www.w3.org/2000/svg">
<path d="M19.3334 28V21C19.3334 20.4477 18.8856 20 18.3334 20H13.6667C13.1144 20 12.6667 20.4477 12.6667 21V28" stroke="#FF7D41" stroke-width="2.5" stroke-linecap="round" stroke-linejoin="round"/>
<path d="M6.66669 14.6666V24C6.66669 25.8856 6.66669 26.8284 7.25247 27.4142C7.83826 28 8.78107 28 10.6667 28H21.3334C23.219 28 24.1618 28 24.7476 27.4142C25.3334 26.8284 25.3334 25.8856 25.3334 24V14.6666" stroke="#FF7D41" stroke-width="2.5"/>
<path d="M6.28793 5.51493C6.46982 4.78737 6.56077 4.42359 6.83203 4.21179C7.10329 4 7.47827 4 8.22822 4H23.7718C24.5217 4 24.8967 4 25.168 4.21179C25.4392 4.42359 25.5302 4.78737 25.7121 5.51493L27.4431 12.4392C27.6681 13.3391 27.7806 13.7891 27.6087 14.1237C27.5511 14.2357 27.473 14.3357 27.3784 14.4187C27.0954 14.6667 26.6254 14.6667 25.6855 14.6667V14.6667C24.4338 14.6667 23.808 14.6667 23.3336 14.3827C23.1463 14.2705 22.9786 14.1285 22.8372 13.9621C22.479 13.5409 22.3775 12.9315 22.1743 11.7128V11.7128C22.1173 11.3706 22.0888 11.1995 22.0321 11.1802C22.0113 11.1732 21.9887 11.1732 21.9679 11.1802C21.9112 11.1995 21.8827 11.3706 21.8257 11.7128L21.7169 12.3651C21.6177 12.9607 21.568 13.2585 21.4568 13.5009C21.2094 14.0399 20.7355 14.4414 20.1631 14.5968C19.9058 14.6667 19.6038 14.6667 19 14.6667V14.6667C18.3962 14.6667 18.0942 14.6667 17.8369 14.5968C17.2645 14.4414 16.7906 14.0399 16.5432 13.5009C16.432 13.2585 16.3823 12.9607 16.2831 12.3651L16.1743 11.7128C16.1173 11.3706 16.0888 11.1995 16.0321 11.1802C16.0113 11.1732 15.9887 11.1732 15.9679 11.1802C15.9112 11.1995 15.8827 11.3706 15.8257 11.7128L15.7169 12.3651C15.6177 12.9607 15.568 13.2585 15.4568 13.5009C15.2094 14.0399 14.7355 14.4414 14.1631 14.5968C13.9058 14.6667 13.6038 14.6667 13 14.6667V14.6667C12.3962 14.6667 12.0942 14.6667 11.8369 14.5968C11.2645 14.4414 10.7906 14.0399 10.5432 13.5009C10.432 13.2585 10.3823 12.9607 10.2831 12.3651L10.1743 11.7128C10.1173 11.3706 10.0888 11.1995 10.0321 11.1802C10.0113 11.1732 9.98872 11.1732 9.9679 11.1802C9.9112 11.1995 9.88269 11.3706 9.82565 11.7128V11.7128C9.62253 12.9315 9.52097 13.5409 9.16283 13.9621C9.02142 14.1285 8.85372 14.2705 8.66639 14.3827C8.19199 14.6667 7.56618 14.6667 6.31455 14.6667V14.6667C5.37455 14.6667 4.90456 14.6667 4.62163 14.4187C4.527 14.3357 4.44887 14.2357 4.39135 14.1237C4.21939 13.7891 4.33188 13.3391 4.55687 12.4392L6.28793 5.51493Z" stroke="#FF7D41" stroke-width="2.5"/>
</svg>
